<?xml version="1.0" encoding="UTF-8" standalone="no"?>
<!-- Created with Inkscape (http://www.inkscape.org/) -->

<svg
   width="1920"
   height="1080"
   viewBox="0 0 1920 1080"
   version="1.1"
   id="svg5"
   xml:space="preserve"
   inkscape:version="1.2.2 (b0a8486541, 2022-12-01)"
   sodipodi:docname="background.svg"
   inkscape:export-filename="background.png"
   inkscape:export-xdpi="96"
   inkscape:export-ydpi="96"
   xmlns:inkscape="http://www.inkscape.org/namespaces/inkscape"
   xmlns:sodipodi="http://sodipodi.sourceforge.net/DTD/sodipodi-0.dtd"
   xmlns="http://www.w3.org/2000/svg"
   xmlns:svg="http://www.w3.org/2000/svg"><sodipodi:namedview
     id="namedview7"
     pagecolor="#ffffff"
     bordercolor="#000000"
     borderopacity="0.25"
     inkscape:showpageshadow="2"
     inkscape:pageopacity="0.0"
     inkscape:pagecheckerboard="0"
     inkscape:deskcolor="#d1d1d1"
     inkscape:document-units="px"
     showgrid="false"
     inkscape:zoom="0.4791385"
     inkscape:cx="1341.9919"
     inkscape:cy="531.16166"
     inkscape:window-width="1920"
     inkscape:window-height="1000"
     inkscape:window-x="0"
     inkscape:window-y="0"
     inkscape:window-maximized="1"
     inkscape:current-layer="layer1" /><defs
     id="defs2"><rect
       x="260.15359"
       y="161.10222"
       width="736.65594"
       height="184.94539"
       id="rect57159" /><rect
       x="273.41888"
       y="9.9358816"
       width="713.58813"
       height="124.69797"
       id="rect10949" /><style
       id="style2">.cls-1{fill:#e95420;}.cls-2{fill:#fff;}.cls-3{fill:#111;}</style></defs><g
     inkscape:label="Capa 1"
     inkscape:groupmode="layer"
     id="layer1"><rect
       style="fill:#000000"
       id="rect653"
       width="1920"
       height="1080"
       x="0"
       y="0" /><g
       id="g304"
       transform="translate(271.64271,51.910048)"><rect
         class="cls-1"
         width="68.103783"
         height="104.885"
         id="rect6"
         style="display:inline;fill:#0094f0;fill-opacity:1;stroke-width:0.29113"
         x="0"
         y="0" /><text
         xml:space="preserve"
         id="text10947"
         style="font-style:normal;font-variant:normal;font-weight:normal;font-stretch:normal;font-size:40px;line-height:1.25;font-family:Ubuntu;-inkscape-font-specification:Ubuntu;white-space:pre;shape-inside:url(#rect10949);display:none;fill:#000000;fill-opacity:1;stroke:none"
         transform="scale(0.29112892)" /><text
         xml:space="preserve"
         id="text57157"
         style="font-style:normal;font-variant:normal;font-weight:normal;font-stretch:normal;font-size:192px;line-height:1.25;font-family:Ubuntu;-inkscape-font-specification:Ubuntu;white-space:pre;shape-inside:url(#rect57159);display:none"
         transform="scale(0.29112892)" /><g
         aria-label="Ubuntu Studio"
         id="text62543"
         style="font-weight:300;font-size:79.5716px;line-height:1.25;font-family:Ubuntu;-inkscape-font-specification:'Ubuntu, Light';fill:#ffffff;stroke-width:0"><path
           d="m 107.39817,99.33838 q -5.49044,0 -9.389448,-1.671004 -3.819437,-1.671003 -6.206585,-4.615153 -2.387148,-2.944149 -3.501151,-6.843157 -1.03443,-3.97858 -1.03443,-8.514162 V 43.001686 h 5.410869 V 76.97876 q 0,4.535581 1.03443,7.877588 1.114003,3.262436 3.023721,5.410869 1.909719,2.148434 4.615154,3.182864 2.70543,1.034431 6.04744,1.034431 3.34201,0 6.04744,-1.034431 2.70544,-1.03443 4.61516,-3.182864 1.90971,-2.148433 2.94414,-5.410869 1.11401,-3.342007 1.11401,-7.877588 V 43.001686 h 5.41087 v 34.693218 q 0,4.535582 -1.11401,8.514162 -1.03443,3.899008 -3.42158,6.843157 -2.38714,2.94415 -6.28615,4.615153 -3.81944,1.671004 -9.30988,1.671004 z"
           id="path81" /><path
           d="m 146.4677,59.473007 q 1.35272,-1.03443 4.29687,-2.148433 3.02372,-1.193574 7.08187,-1.193574 4.45601,0 7.87759,1.591432 3.50115,1.591432 5.8883,4.45601 2.38714,2.864578 3.58072,6.843158 1.27314,3.899008 1.27314,8.593733 0,5.013011 -1.51186,8.991591 -1.43228,3.97858 -4.13772,6.763586 -2.62586,2.785006 -6.36573,4.296866 -3.66029,1.432289 -8.19587,1.432289 -5.49044,0 -9.07116,-0.716144 -3.58073,-0.716145 -5.8883,-1.511861 V 37.352102 l 5.17215,-0.954859 z m 0,33.817931 q 1.19357,0.397858 3.50115,0.795716 2.38715,0.318287 6.20659,0.318287 6.68401,0 10.74216,-4.296867 4.05815,-4.376438 4.05815,-12.492741 0,-3.421579 -0.71614,-6.4453 -0.71614,-3.103293 -2.30758,-5.331297 -1.59143,-2.307577 -4.21729,-3.660294 -2.54629,-1.352717 -6.36573,-1.352717 -1.83015,0 -3.50115,0.397858 -1.671,0.318286 -3.10329,0.875287 -1.43229,0.557001 -2.54629,1.193574 -1.03443,0.636573 -1.75058,1.193574 z"
           id="path83" /><path
           d="m 219.27558,96.712517 q -2.30757,0.636573 -6.20658,1.432289 -3.89901,0.795716 -9.54859,0.795716 -4.61516,0 -7.71845,-1.352717 -3.10329,-1.352718 -5.01301,-3.819437 -1.90972,-2.46672 -2.78501,-5.96787 -0.79571,-3.501151 -0.79571,-7.718446 V 57.006288 h 5.17215 v 21.404761 q 0,4.376438 0.63657,7.400159 0.63658,3.02372 2.06887,4.933439 1.43228,1.830147 3.66029,2.705434 2.30758,0.795716 5.57001,0.795716 3.6603,0 6.36573,-0.397858 2.70543,-0.397858 3.42158,-0.716144 V 57.006288 h 5.17215 z"
           id="path85" /><path
           d="m 232.96176,58.438577 q 2.30758,-0.636573 6.20659,-1.432289 3.89901,-0.795716 9.54859,-0.795716 4.69473,0 7.79802,1.352717 3.18286,1.352717 5.01301,3.899008 1.90972,2.46672 2.70543,5.967871 0.79572,3.50115 0.79572,7.718445 v 22.996193 h -5.17215 V 76.819617 q 0,-4.376438 -0.63658,-7.400159 -0.557,-3.023721 -1.98929,-4.93344 -1.35271,-1.909718 -3.66029,-2.705434 -2.22801,-0.875288 -5.64958,-0.875288 -3.6603,0 -6.36573,0.397858 -2.62587,0.397858 -3.42158,0.716145 v 36.125507 h -5.17216 z"
           id="path87" /><path
           d="m 283.09174,57.006288 h 16.39175 v 4.376438 h -16.39175 v 21.88219 q 0,3.501151 0.557,5.729156 0.63657,2.148433 1.75058,3.342007 1.114,1.193574 2.70543,1.591432 1.59143,0.397858 3.50115,0.397858 3.26244,0 5.25173,-0.716144 1.98929,-0.795716 3.10329,-1.432289 l 1.27315,4.296866 q -1.11401,0.716145 -3.89901,1.671004 -2.78501,0.875288 -6.04745,0.875288 -3.81943,0 -6.44529,-0.95486 -2.5463,-1.034431 -4.13773,-3.023721 -1.51186,-2.068861 -2.14843,-5.092582 -0.63657,-3.023721 -0.63657,-7.161444 V 44.911404 l 5.17215,-0.954859 z"
           id="path89" /><path
           d="m 340.62194,96.712517 q -2.30757,0.636573 -6.20658,1.432289 -3.89901,0.795716 -9.5486,0.795716 -4.61515,0 -7.71844,-1.352717 -3.10329,-1.352718 -5.01301,-3.819437 -1.90972,-2.46672 -2.78501,-5.96787 -0.79571,-3.501151 -0.79571,-7.718446 V 57.006288 h 5.17215 v 21.404761 q 0,4.376438 0.63657,7.400159 0.63658,3.02372 2.06886,4.933439 1.43229,1.830147 3.6603,2.705434 2.30757,0.795716 5.57001,0.795716 3.66029,0 6.36573,-0.397858 2.70543,-0.397858 3.42158,-0.716144 V 57.006288 h 5.17215 z"
           id="path91" /><path
           d="m 384.62481,94.643655 q 6.4453,0 10.02602,-2.307576 3.58072,-2.387148 3.58072,-7.638874 0,-3.023721 -1.19357,-5.013011 -1.11401,-2.068861 -3.02373,-3.421579 -1.90971,-1.432288 -4.37643,-2.387148 -2.46672,-1.03443 -5.17216,-2.148433 -3.42158,-1.352717 -6.12701,-2.785006 -2.70544,-1.432289 -4.61515,-3.182864 -1.90972,-1.830147 -2.94415,-4.137723 -0.95486,-2.307577 -0.95486,-5.410869 0,-7.081873 4.69472,-10.742167 4.69473,-3.660293 13.04975,-3.660293 2.228,0 4.37643,0.318286 2.14844,0.318287 3.97858,0.875288 1.90972,0.477429 3.42158,1.114002 1.59143,0.636573 2.62587,1.352717 l -1.90972,4.535582 q -2.30758,-1.591432 -5.64959,-2.546291 -3.26243,-0.95486 -7.08187,-0.95486 -2.62586,0 -4.85387,0.557002 -2.14843,0.477429 -3.73986,1.671003 -1.59143,1.114003 -2.54629,2.864578 -0.87529,1.750575 -0.87529,4.217295 0,2.546291 0.95486,4.296866 0.95486,1.750575 2.62586,3.023721 1.75058,1.273146 4.05815,2.307577 2.30758,1.03443 5.01301,2.148433 3.26244,1.352717 6.12702,2.705434 2.94415,1.352717 5.09258,3.182864 2.14843,1.830147 3.42158,4.45601 1.27314,2.625863 1.27314,6.4453 0,7.47973 -5.25172,11.219596 -5.17216,3.739865 -14.08418,3.739865 -3.18286,0 -5.80872,-0.397858 -2.62587,-0.397858 -4.69473,-0.954859 -2.06886,-0.636573 -3.50115,-1.273146 -1.43229,-0.636573 -2.228,-1.114002 l 1.75057,-4.694725 q 0.79572,0.47743 2.14844,1.114003 1.35271,0.636572 3.18286,1.273145 1.83015,0.557001 4.13772,0.954859 2.30758,0.397858 5.09259,0.397858 z"
           id="path93" /><path
           d="m 418.44259,57.006288 h 16.39175 v 4.376438 h -16.39175 v 21.88219 q 0,3.501151 0.557,5.729156 0.63657,2.148433 1.75057,3.342007 1.114,1.193574 2.70544,1.591432 1.59143,0.397858 3.50115,0.397858 3.26243,0 5.25172,-0.716144 1.98929,-0.795716 3.10329,-1.432289 l 1.27315,4.296866 q -1.114,0.716145 -3.89901,1.671004 -2.785,0.875288 -6.04744,0.875288 -3.81944,0 -6.4453,-0.95486 -2.54629,-1.034431 -4.13772,-3.023721 -1.51186,-2.068861 -2.14844,-5.092582 -0.63657,-3.023721 -0.63657,-7.161444 V 44.911404 l 5.17216,-0.954859 z"
           id="path95" /><path
           d="m 475.9728,96.712517 q -2.30757,0.636573 -6.20658,1.432289 -3.89901,0.795716 -9.54859,0.795716 -4.61516,0 -7.71845,-1.352717 -3.10329,-1.352718 -5.01301,-3.819437 -1.90972,-2.46672 -2.78501,-5.96787 -0.79571,-3.501151 -0.79571,-7.718446 V 57.006288 h 5.17215 v 21.404761 q 0,4.376438 0.63657,7.400159 0.63658,3.02372 2.06887,4.933439 1.43228,1.830147 3.66029,2.705434 2.30758,0.795716 5.57001,0.795716 3.66029,0 6.36573,-0.397858 2.70543,-0.397858 3.42158,-0.716144 V 57.006288 h 5.17215 z"
           id="path97" /><path
           d="m 522.3629,96.87166 q -2.30758,0.795716 -5.8883,1.511861 -3.58072,0.716144 -9.07116,0.716144 -4.53559,0 -8.27545,-1.432289 -3.66029,-1.51186 -6.36573,-4.296866 -2.62586,-2.785006 -4.13772,-6.763586 -1.43229,-3.97858 -1.43229,-8.991591 0,-4.694725 1.19357,-8.593733 1.27315,-3.97858 3.6603,-6.843158 2.38715,-2.864578 5.80872,-4.45601 3.50115,-1.591432 7.95716,-1.591432 4.05816,0 7.00231,1.193574 3.02372,1.114003 4.37643,2.148433 V 37.352102 l 5.17216,-0.954859 z m -5.17216,-32.385642 q -0.71614,-0.557001 -1.83014,-1.193574 -1.03443,-0.636573 -2.46672,-1.193574 -1.43229,-0.557001 -3.1033,-0.875287 -1.671,-0.397858 -3.50115,-0.397858 -3.81943,0 -6.4453,1.352717 -2.54629,1.352717 -4.13772,3.660294 -1.59143,2.228004 -2.30758,5.331297 -0.71614,3.023721 -0.71614,6.4453 0,8.116303 4.05815,12.492741 4.05815,4.296867 10.74217,4.296867 3.81943,0 6.12701,-0.318287 2.38715,-0.397858 3.58072,-0.795716 z"
           id="path99" /><path
           d="m 541.22123,98.144806 h -5.17215 V 57.006288 h 5.17215 z m 1.19357,-53.551688 q 0,1.830147 -1.114,2.944149 -1.114,1.034431 -2.70543,1.034431 -1.59144,0 -2.70544,-1.034431 -1.114,-1.114002 -1.114,-2.944149 0,-1.830147 1.114,-2.864578 1.114,-1.114002 2.70544,-1.114002 1.59143,0 2.70543,1.114002 1.114,1.034431 1.114,2.864578 z"
           id="path101" /><path
           d="m 589.99858,77.615333 q 0,4.853867 -1.43229,8.832447 -1.35272,3.978581 -3.89901,6.763587 -2.46672,2.785006 -5.8883,4.376438 -3.42157,1.51186 -7.5593,1.51186 -4.13772,0 -7.5593,-1.51186 -3.42158,-1.591432 -5.96787,-4.376438 -2.46672,-2.785006 -3.89901,-6.763587 -1.35272,-3.97858 -1.35272,-8.832447 0,-4.853868 1.35272,-8.832448 1.43229,-3.97858 3.89901,-6.763586 2.54629,-2.864578 5.96787,-4.376438 3.42158,-1.591432 7.5593,-1.591432 4.13773,0 7.5593,1.591432 3.42158,1.51186 5.8883,4.376438 2.54629,2.785006 3.89901,6.763586 1.43229,3.97858 1.43229,8.832448 z m -5.49044,0 q 0,-7.718446 -3.58072,-12.254027 -3.58072,-4.615153 -9.70774,-4.615153 -6.12701,0 -9.70773,4.615153 -3.58073,4.535581 -3.58073,12.254027 0,7.718445 3.58073,12.254026 3.58072,4.535582 9.70773,4.535582 6.12702,0 9.70774,-4.535582 3.58072,-4.535581 3.58072,-12.254026 z"
           id="path103" /></g><g
         id="g20"
         transform="matrix(0.31053749,0,0,0.31053749,264.92408,6.2275449)"
         style="display:inline"><path
           style="display:inline;opacity:1;fill:none;fill-opacity:0.117647;stroke:#ffffff;stroke-width:15;stroke-linecap:round;stroke-linejoin:miter;stroke-miterlimit:4;stroke-dasharray:none;stroke-dashoffset:0;stroke-opacity:1"
           id="path3359"
           d="m -720.35798,206.64957 a 22.499565,22.499992 0 0 1 -22.4527,22.49994 22.499565,22.499992 0 0 1 -22.54623,-22.40622 22.499565,22.499992 0 0 1 22.35878,-22.59328 22.499565,22.499992 0 0 1 22.63937,22.31211" /><path
           id="path4226"
           style="display:inline;opacity:1;fill:none;fill-opacity:0.117647;stroke:#ffffff;stroke-width:15.3334;stroke-linecap:round;stroke-linejoin:miter;stroke-miterlimit:4;stroke-dasharray:none;stroke-dashoffset:0;stroke-opacity:1"
           d="m -778.09475,171.41207 a 49.832935,49.833347 0 0 1 54.30744,-10.80251 49.832935,49.833347 0 0 1 30.7627,46.04001 49.832935,49.833347 0 0 1 -30.7627,46.04001 49.832935,49.833347 0 0 1 -54.30744,-10.80252" /><path
           style="display:inline;opacity:1;fill:none;fill-opacity:0.117647;stroke:#ffffff;stroke-width:15.4545;stroke-linecap:round;stroke-linejoin:miter;stroke-miterlimit:4;stroke-dasharray:none;stroke-dashoffset:0;stroke-opacity:1"
           id="path4228"
           d="m -688.21775,261.28966 a 77.272339,77.272758 0 0 1 -34.64024,19.99966" /><path
           style="display:inline;opacity:1;fill:none;fill-opacity:0.117647;stroke:#ffffff;stroke-width:15.3334;stroke-linecap:round;stroke-linejoin:miter;stroke-miterlimit:4;stroke-dasharray:none;stroke-dashoffset:0;stroke-opacity:1"
           id="path3362"
           d="m -790.99246,219.54738 a 49.832935,49.833347 0 0 1 0,-25.79563" /><path
           id="path3364"
           style="display:inline;opacity:1;fill:none;fill-opacity:0.117647;stroke:#ffffff;stroke-width:15.4545;stroke-linecap:round;stroke-linejoin:miter;stroke-miterlimit:4;stroke-dasharray:none;stroke-dashoffset:0;stroke-opacity:1"
           d="m -817.49689,226.64923 a 77.272339,77.272758 0 0 1 0,-39.99932" /><path
           style="display:inline;opacity:1;fill:none;fill-opacity:0.117647;stroke:#ffffff;stroke-width:15.4545;stroke-linecap:round;stroke-linejoin:miter;stroke-miterlimit:4;stroke-dasharray:none;stroke-dashoffset:0;stroke-opacity:1"
           id="path3366"
           d="m -722.85799,132.00981 a 77.272339,77.272758 0 0 1 34.64024,19.99966" /></g></g><text
       xml:space="preserve"
       style="font-size:36.5632px;fill:#ececec;stroke-width:6.07725"
       x="286.83609"
       y="313.80643"
       id="text360"><tspan
         sodipodi:role="line"
         id="tspan358"
         x="286.83609"
         y="313.80643"
         style="font-style:normal;font-variant:normal;font-weight:500;font-stretch:normal;font-size:36.5632px;font-family:'Ubuntu Sans';-inkscape-font-specification:'Ubuntu Sans Medium';fill:#ececec;stroke-width:6.07725">Choose an operating system to start</tspan></text><text
       xml:space="preserve"
       style="font-size:20.8528px;fill:#cccccc;stroke-width:3.46598"
       x="959.71851"
       y="1038.9768"
       id="text360-3"><tspan
         sodipodi:role="line"
         id="tspan358-6"
         x="959.71851"
         y="1038.9768"
         style="font-style:normal;font-variant:normal;font-weight:500;font-stretch:normal;font-size:20.8528px;font-family:'Ubuntu Sans';-inkscape-font-specification:'Ubuntu Sans Medium';text-align:center;text-anchor:middle;fill:#cccccc;stroke-width:3.46598">Use the up and down keys to selecr which entry is highlighted. Press enter to boot the selected OS, 'e' to edit the commands before booting or 'c' for a command-line.</tspan></text></g></svg>
